. 
 
http://www.torrenting.com          :     Once & For all ;)


               www . Torrenting . Com 

(((((((((((((= Enjoy No RAR releases =))))))))))))))))))))


...................................NFO:....................................

.[IMG]http://img833.imageshack.us/img833/9205/windyking.png[/IMG]


[color=blue][size=5][b]King.Of.The.Wind.1990.DVDRip.XVID.Une-CM8[/b][/size][/color]


[b]CM8 Doing It Right The First Time :D

As requested Mr w0lf

Source: DVDR Thx Rumpelstiltskin

Big Thx to Mr Set :D

Video: 672x448 @bitrate 2098 2pass
Audio: English AC3 2.0 Stereo 
Sample: yes included[/b]


[url]http://www.imdb.com/title/tt1928124/[/url]



General
Complete name                    : King Of The Wind\King Of The Wind UnE-CM8.avi
Format                           : AVI
Format/Info                      : Audio Video Interleave
File size                        : 1.64 GiB
Duration                         : 1h 42mn
Overall bit rate                 : 2 299 Kbps
Writing library                  : VirtualDub build 30091/release

Video
ID                               : 0
Format                           : MPEG-4 Visual
Format profile                   : Advanced Simple@L5
Format settings, BVOP            : 2
Format settings, QPel            : No
Format settings, GMC             : No warppoints
Format settings, Matrix          : Default (H.263)
Codec ID                         : XVID
Codec ID/Hint                    : XviD
Duration                         : 1h 42mn
Bit rate                         : 2 098 Kbps
Width                            : 672 pixels
Height                           : 448 pixels
Display aspect ratio             : 3:2
Frame rate                       : 23.976 fps
Color space                      : YUV
Chroma subsampling               : 4:2:0
Bit depth                        : 8 bits
Scan type                        : Progressive
Compression mode                 : Lossy
Bits/(Pixel*Frame)               : 0.291
Stream size                      : 1.50 GiB (91%)
Writing library                  : XviD 1.2.1 (UTC 2008-12-04)

Audio
ID                               : 1
Format                           : AC-3
Format/Info                      : Audio Coding 3
Mode extension                   : CM (complete main)
Codec ID                         : 2000
Duration                         : 1h 42mn
Bit rate mode                    : Constant
Bit rate                         : 192 Kbps
Channel(s)                       : 2 channels
Channel positions                : Front: L R
Sampling rate                    : 48.0 KHz
Bit depth                        : 16 bits
Compression mode                 : Lossy
Stream size                      : 140 MiB (8%)
Alignment                        : Split accross interleaves
Interleave, duration             : 42 ms (1.00 video frame)
Interleave, preload duration     : 500 ms



Plot:

In 1727, an Arab colt is born with the signs of the wheat ear and the white 
spot on his heel: evil and good. And thus begins the life of Sham. He is a gift 
to the King of France, through a series of adventures with his faithful stable boy, 
Agba, he becomes the Godolphin Arabian, the founder of one of the greatest thoroughbred racing lines of all time. 


Cast:

Richard Harris	... 	King George II
Glenda Jackson	... 	Queen Caroline
Frank Finlay	... 	Edward Coke
Jenny Agutter	... 	Hannah Coke
Nigel Hawthorne	... 	Achmet



[img]http://img191.imageshack.us/img191/5923/vlcsnap2011111210h14m43.png[/img]
[img]http://img14.imageshack.us/img14/4595/vlcsnap2011111210h14m40.png[/img]
[img]http://img405.imageshack.us/img405/3971/vlcsnap2011111210h14m34.png[/img]
[img]http://img72.imageshack.us/img72/1223/vlcsnap2011111210h13m14.png[/img]
[img]http://img51.imageshack.us/img51/8071/vlcsnap2011111210h13m10.png[/img]
[img]http://img155.imageshack.us/img155/8921/vlcsnap2011111210h12m33.png[/img]





Greetz

ViSiON,SPK,SiC,SANTi,3LT0N,YanKeeS,MAGNET,THC,T0XiC,LKRG,FANTASIA-PLAY,FANTASIA-M,FLAWL3SS,
WBZ,BHRG,NOVA,D2U,Vik,Rapeseed,SAFC,goldadvance,MEMORY100,KaN1vE,Unevano,Pinnz,Wayne
Mr Hive,and most P2P groups
Great Work Guys :D

LOOKING FOR ANYTHING YOU WANT TO LOOK AND SOUND BETTER

CM8@hushmail.com